<svg width="136" height="30" viewBox="0 0 136 30" fill="none" xmlns="http://www.w3.org/2000/svg">
  <path d="M34.424 24C32.024 24 30.104 22.104 30.104 19.704V16.08C30.104 13.68 32.024 11.76 34.424 11.76H36.344C38.744 11.76 40.664 13.68 40.664 16.08V19.704C40.664 22.104 38.744 24 36.344 24H34.424ZM32.504 19.704C32.504 20.784 33.344 21.576 34.424 21.6H36.344C37.424 21.6 38.264 20.784 38.264 19.704V16.08C38.264 15 37.424 14.16 36.344 14.16H34.424C33.344 14.16 32.504 15 32.504 16.08V19.704ZM47.6774 24L45.6854 22.656V29.04H43.2854V11.76H45.6854V13.104L47.6774 11.76H49.5254C51.9014 11.76 53.8454 13.704 53.8454 16.08V19.68C53.8454 22.08 51.9014 24 49.5254 24H47.6774ZM45.6854 19.752L48.4214 21.6H49.5254C50.5814 21.6 51.4454 20.736 51.4454 19.68V16.08C51.4454 15.024 50.5814 14.16 49.5254 14.16H48.4214L45.6854 16.008V19.752ZM60.3693 24C57.9933 24 56.0493 22.032 56.0493 19.656V16.08C56.0493 13.68 57.9933 11.76 60.3693 11.76H62.2893C64.6173 11.76 66.4893 13.56 66.6093 15.84V18.432H58.4493V19.656C58.4493 20.712 59.3133 21.576 60.3693 21.576H62.2893C63.3453 21.576 64.2093 20.712 64.2093 19.656V19.416H66.6093V19.656C66.6093 22.032 64.6893 24 62.2893 24H60.3693ZM58.4493 16.512H64.2093V16.08C64.2093 15 63.3693 14.16 62.2893 14.16H60.3693C59.2893 14.16 58.4493 15.024 58.4493 16.08V16.512ZM77.3673 16.08C77.3673 15.024 76.5033 14.16 75.4473 14.16H74.3433L71.6073 15.936V24H69.2073V11.76H71.6073V13.2L73.5993 11.76H75.4473C77.8233 11.76 79.7673 13.68 79.7673 16.08V24H77.3673V16.08ZM96.0999 16.08C96.0999 15.024 95.7159 14.16 94.6599 14.16H93.5559L91.7559 15.696C91.7799 15.816 91.7799 15.96 91.7799 16.08V24H89.3799V16.08C89.3799 15.024 88.9959 14.16 87.9399 14.16H87.3159L85.0599 16.128V24H82.6839V11.76H85.0599V13.296L86.6679 11.76H87.9399C89.3079 11.76 90.3879 12.408 91.0359 13.416L92.8119 11.76H94.6599C97.0359 11.76 98.4999 13.68 98.4999 16.08V24H96.0999V16.08ZM105.346 24C102.97 24 101.026 22.056 101.026 19.68V16.08C101.026 13.68 102.97 11.76 105.346 11.76H107.194L109.186 13.104V11.76H111.586V24H109.186V22.656L107.194 24H105.346ZM103.426 19.68C103.426 20.736 104.29 21.6 105.346 21.6H106.45L109.186 19.752V16.008L106.45 14.16H105.346C104.29 14.16 103.426 15.024 103.426 16.08V19.68ZM114.054 24V21.6H118.014V14.16H114.054V11.76H120.414V21.6H124.374V24H114.054ZM117.654 9.6V6.96H120.414V9.6H117.654ZM125.151 24V21.6H129.111V9.36H125.151V6.96H131.511V21.6H135.711V24H125.151Z" fill="#09090b"/>
  <rect y="7" width="20" height="20" fill="#09090b"/>
</svg>
